<svg id="Layer_1" data-name="Layer 1" xmlns="http://www.w3.org/2000/svg" viewBox="0 0 479.23 519"><defs><style>.cls-1{fill:#e8e6f3;}</style></defs><title>BELL</title><path class="cls-1" d="M532.77,459.32c-5.38-8.52-13.25-15.11-20-22.53-19.43-21.19-30.14-49.28-34.4-77.72-8.09-54,6.87-108.17.42-162.31-2.17-18.21-6.66-36.17-15-53.7C434.83,82.56,366.73,47.54,300,47c-66.73.54-134.83,35.56-163.72,96.06-8.36,17.53-12.85,35.49-15,53.7-6.45,54.14,8.51,108.34.42,162.31-4.26,28.44-15,56.53-34.4,77.72-6.8,7.42-14.67,14-20,22.53C46.7,491.87,77,488.7,97.3,488.7H502.7C523,488.7,553.3,491.87,532.77,459.32Z" transform="translate(-60.38 -47)"/><path class="cls-1" d="M300,566a64.17,64.17,0,0,0,64.13-62.76H235.87A64.17,64.17,0,0,0,300,566Z" transform="translate(-60.38 -47)"/></svg>