<svg id="Layer_1" data-name="Layer 1" xmlns="http://www.w3.org/2000/svg" viewBox="0 0 358.54 541.03"><defs><style>.cls-1{fill:#f3f2f9;}</style></defs><title>BOOK</title><path class="cls-1" d="M417,162.63H405.74q-62.24,0-124.48-.14c-33.48,0-67-.36-100.46.51-5.71.15-11.58.32-17-1.44-.24-.07-.48-.16-.72-.24-18.45-6.61-9.6-26.29,4.42-31,22.47-7.51,46.87-11.46,69.92-17,46.07-11,92.21-21.63,138.31-32.48,2.95-.7,47.15-9.42,47.15-11v73.68h28.63V36l-11.59,2.67L317.72,66.81c-49,11.3-98.06,22.26-147,33.54-13,3-26,7.41-36.09,16.15-16.87,14.67-13.68,35.06-13.68,55V532.21c2.28,17.09,12.27,32.4,28.44,39.24,12.4,5.24,26.24,5.84,39.7,5.46,21-.59,41.77-.46,62.73-.46H479.27V162.63ZM437.5,294.16a12.33,12.33,0,0,1-12.32,12.33H231.59a12.32,12.32,0,0,1-12.32-12.33V221.08a12.31,12.31,0,0,1,12.32-12.32H425.18a12.32,12.32,0,0,1,12.32,12.32Z" transform="translate(-120.73 -35.97)"/></svg>