<svg id="Layer_1" data-name="Layer 1" xmlns="http://www.w3.org/2000/svg" viewBox="0 0 552 396.38"><defs><style>.cls-1{fill:#fff;}.cls-2{fill:#cdc8e4;}.cls-3{isolation:isolate;}.cls-4{fill:#382c7a;}.cls-5{fill:#fcdedd;}.cls-6{fill:#ea7878;}.cls-7{fill:#f9bebe;}.cls-8{fill:#b25e79;}.cls-9{fill:#f3f2f9;}.cls-10{fill:#e8e7f4;}.cls-11{fill:#7d74b5;}</style></defs><title>CALENDAR</title><g id="Rectangle_19" data-name="Rectangle 19"><rect class="cls-1" x="0.13" y="0.13" width="551.74" height="396.12"/><path class="cls-2" d="M576,504.69H24V108.31H576Zm-551.74-.26H575.74V108.57H24.26Z" transform="translate(-24 -108.31)"/><path class="cls-2" d="M575.71,504.4H24.29V108.6H575.71Zm-551.15-.26H575.44V108.86H24.56Z" transform="translate(-24 -108.31)"/></g><g id="Line_5" data-name="Line 5"><rect class="cls-2" x="77.81" y="0.13" width="0.26" height="396.12"/></g><g id="Line_6" data-name="Line 6"><rect class="cls-2" x="157.98" y="0.13" width="0.26" height="396.12"/></g><g id="Line_7" data-name="Line 7"><rect class="cls-2" x="235.79" y="0.13" width="0.26" height="396.12"/></g><g id="Line_8" data-name="Line 8"><rect class="cls-2" x="315.95" y="0.13" width="0.26" height="396.12"/></g><g id="Line_9" data-name="Line 9"><rect class="cls-2" x="393.76" y="0.13" width="0.26" height="396.12"/></g><g id="Line_10" data-name="Line 10"><rect class="cls-2" x="473.93" y="0.13" width="0.26" height="396.12"/></g><g id="Line_13" data-name="Line 13"><rect class="cls-2" x="0.13" y="238.14" width="551.74" height="0.26"/></g><g id="Line_14" data-name="Line 14"><rect class="cls-2" x="0.13" y="318.31" width="551.74" height="0.26"/></g><g id="Line_19" data-name="Line 19"><rect class="cls-2" x="0.13" y="80.17" width="551.74" height="0.26"/></g><g id="Line_20" data-name="Line 20"><rect class="cls-2" x="0.13" y="157.98" width="551.74" height="0.26"/></g><g id="_1" data-name=" 1" class="cls-3"><g class="cls-3"><path class="cls-4" d="M190.76,117.29h-1.34v-.88h2.29v8.53h-1Z" transform="translate(-24 -108.31)"/></g></g><g id="_2" data-name=" 2" class="cls-3"><g class="cls-3"><path class="cls-4" d="M269.85,124.11c4.9-3.1,5.54-3.82,5.54-5.18,0-1.14-.93-1.74-2.23-1.74a2.18,2.18,0,0,0-2.4,1.65l-.89-.12a3,3,0,0,1,3.29-2.4c1.89,0,3.21.89,3.21,2.55s-1,2.62-5.11,5.19h5.05v.88h-6.46Z" transform="translate(-24 -108.31)"/></g></g><g id="_3" data-name=" 3" class="cls-3"><g class="cls-3"><path class="cls-4" d="M350,122.82l.91-.16a2.42,2.42,0,0,0,2.52,1.56c1.53,0,2.41-.66,2.41-1.69s-.64-1.54-2.4-1.54h-.62v-.8h.47c1.53,0,2.3-.5,2.3-1.46s-.74-1.57-2.21-1.57a2.25,2.25,0,0,0-2.22,1.36l-.9-.17a3.07,3.07,0,0,1,3.15-2c2,0,3.14.9,3.14,2.35a1.87,1.87,0,0,1-1.76,1.93,1.91,1.91,0,0,1,2,2c0,1.48-1.28,2.49-3.35,2.49A3.26,3.26,0,0,1,350,122.82Z" transform="translate(-24 -108.31)"/></g></g><g id="_4" data-name=" 4" class="cls-3"><g class="cls-3"><path class="cls-4" d="M432.72,122.93h-5v-.78l5-5.74h1v5.68h1.26v.84h-1.26v2h-1Zm0-.84v-4.44l-3.92,4.44Z" transform="translate(-24 -108.31)"/></g></g><g id="_5" data-name=" 5" class="cls-3"><g class="cls-3"><path class="cls-4" d="M508.12,122.82l.86-.12a2.25,2.25,0,0,0,2.39,1.51,2.27,2.27,0,0,0,2.51-2.33,2.18,2.18,0,0,0-2.53-2.19,2.58,2.58,0,0,0-2.23,1.21l-.84-.2.77-4.29h5.22v.87h-4.48l-.51,2.57a3.24,3.24,0,0,1,2.21-.89,2.92,2.92,0,0,1,3.31,3,3.1,3.1,0,0,1-3.39,3.16A3.06,3.06,0,0,1,508.12,122.82Z" transform="translate(-24 -108.31)"/></g></g><g id="_8" data-name=" 8" class="cls-3"><g class="cls-3"><path class="cls-4" d="M189.75,202.87c0-1.07.75-1.78,2-2a2.09,2.09,0,0,1-1.87-2c0-1.46,1.4-2.31,3.32-2.31s3.32.85,3.32,2.31c0,1.08-.71,1.77-1.91,2.05,1.28.25,2,1,2,2,0,1.51-1.46,2.38-3.46,2.38S189.75,204.37,189.75,202.87Zm6-.06c0-1-1-1.6-2.51-1.6s-2.53.62-2.53,1.6,1,1.63,2.52,1.63S195.72,203.8,195.72,202.81Zm-.12-3.95c0-1-.94-1.55-2.37-1.55s-2.39.59-2.39,1.55.94,1.59,2.37,1.59S195.6,199.83,195.6,198.86Z" transform="translate(-24 -108.31)"/></g></g><g id="_9" data-name=" 9" class="cls-3"><g class="cls-3"><path class="cls-4" d="M274.9,202.2a3.1,3.1,0,0,1-1.71.51,3,3,0,0,1-3.28-3.09c0-2.23,1.69-3.18,3.43-3.18s3.46,1,3.46,3.21c0,1.83-1.28,3.47-3.4,5.46h-1.31A12.15,12.15,0,0,0,274.9,202.2Zm1-2.58a2.51,2.51,0,1,0-2.5,2.3A2.25,2.25,0,0,0,275.87,199.62Z" transform="translate(-24 -108.31)"/></g></g><g id="_10" data-name=" 10" class="cls-3"><g class="cls-3"><path class="cls-4" d="M351.1,197.46h-1.35v-.88h2.3v8.53h-.95Z" transform="translate(-24 -108.31)"/><path class="cls-4" d="M353.63,200.86c0-3.05,1.74-4.38,3.68-4.38s3.64,1.33,3.64,4.38-1.72,4.38-3.67,4.38S353.63,204,353.63,200.86Zm6.38,0c0-2.18-1.05-3.49-2.71-3.49s-2.73,1.31-2.73,3.49,1,3.5,2.71,3.5S360,203.08,360,200.86Z" transform="translate(-24 -108.31)"/></g></g><g id="_11" data-name=" 11" class="cls-3"><g class="cls-3"><path class="cls-4" d="M428.9,197.46h-1.34v-.88h2.3v8.53h-1Z" transform="translate(-24 -108.31)"/><path class="cls-4" d="M432.36,197.46H431v-.88h2.3v8.53h-.95Z" transform="translate(-24 -108.31)"/></g></g><g id="_12" data-name=" 12" class="cls-3"><g class="cls-3"><path class="cls-4" d="M509.07,197.46h-1.34v-.88H510v8.53h-1Z" transform="translate(-24 -108.31)"/><path class="cls-4" d="M511.45,204.27c4.89-3.1,5.54-3.82,5.54-5.17,0-1.14-.93-1.74-2.24-1.74a2.18,2.18,0,0,0-2.39,1.65l-.9-.12a3,3,0,0,1,3.29-2.41c1.9,0,3.22.9,3.22,2.56s-1,2.62-5.11,5.19h5v.88h-6.46Z" transform="translate(-24 -108.31)"/></g></g><g id="_7" data-name=" 7" class="cls-3"><g class="cls-3"><path class="cls-4" d="M116.84,197.46h-5.19v-.88h6.22v.85l-4.18,7.68h-1.06Z" transform="translate(-24 -108.31)"/></g></g><g id="_6" data-name=" 6" class="cls-3"><g class="cls-3"><path class="cls-4" d="M31.77,202c0-1.82,1.27-3.46,3.41-5.45h1.29a12.29,12.29,0,0,0-2.8,2.91,3.24,3.24,0,0,1,5,2.57c0,2.24-1.67,3.19-3.43,3.19A3.14,3.14,0,0,1,31.77,202Zm5.94,0a2.24,2.24,0,0,0-2.51-2.3,2.32,2.32,0,1,0,0,4.62A2.23,2.23,0,0,0,37.71,202.07Z" transform="translate(-24 -108.31)"/></g></g><g id="_15" data-name=" 15" class="cls-3"><g class="cls-3"><path class="cls-4" d="M190.76,275.27h-1.34v-.88h2.29v8.53h-1Z" transform="translate(-24 -108.31)"/><path class="cls-4" d="M193.26,280.8l.86-.12a2.25,2.25,0,0,0,2.39,1.51,2.27,2.27,0,0,0,2.51-2.34,2.18,2.18,0,0,0-2.53-2.19,2.61,2.61,0,0,0-2.23,1.22l-.84-.2.77-4.29h5.22v.87h-4.48l-.5,2.57a3.2,3.2,0,0,1,2.2-.9,2.93,2.93,0,0,1,3.31,3,3.1,3.1,0,0,1-3.39,3.16A3.06,3.06,0,0,1,193.26,280.8Z" transform="translate(-24 -108.31)"/></g></g><g id="_16" data-name=" 16" class="cls-3"><g class="cls-3"><path class="cls-4" d="M270.93,275.27h-1.35v-.88h2.3v8.53h-.95Z" transform="translate(-24 -108.31)"/><path class="cls-4" d="M273.37,279.84c0-1.82,1.27-3.46,3.4-5.45h1.3a12.29,12.29,0,0,0-2.8,2.91,3.24,3.24,0,0,1,5,2.57c0,2.24-1.67,3.19-3.43,3.19A3.14,3.14,0,0,1,273.37,279.84Zm5.94,0a2.51,2.51,0,1,0-2.49,2.32A2.24,2.24,0,0,0,279.31,279.88Z" transform="translate(-24 -108.31)"/></g></g><g id="_17" data-name=" 17" class="cls-3"><g class="cls-3"><path class="cls-4" d="M351.1,275.27h-1.35v-.88h2.3v8.53h-.95Z" transform="translate(-24 -108.31)"/><path class="cls-4" d="M358.44,275.27h-5.19v-.88h6.21v.84l-4.17,7.69h-1.06Z" transform="translate(-24 -108.31)"/></g></g><g id="_18" data-name=" 18" class="cls-3"><g class="cls-3"><path class="cls-4" d="M428.9,275.27h-1.34v-.88h2.3v8.53h-1Z" transform="translate(-24 -108.31)"/><path class="cls-4" d="M431.35,280.68c0-1.07.75-1.78,2-2a2.09,2.09,0,0,1-1.87-2c0-1.46,1.4-2.31,3.32-2.31s3.32.85,3.32,2.31c0,1.07-.71,1.77-1.91,2,1.28.25,2,1,2,2,0,1.51-1.46,2.38-3.46,2.38S431.35,282.18,431.35,280.68Zm6-.06c0-1-1-1.6-2.51-1.6s-2.53.62-2.53,1.6,1,1.63,2.52,1.63S437.32,281.61,437.32,280.62Zm-.12-3.95c0-1-.94-1.55-2.37-1.55s-2.39.59-2.39,1.55.94,1.59,2.37,1.59S437.2,277.64,437.2,276.67Z" transform="translate(-24 -108.31)"/></g></g><g id="_19" data-name=" 19" class="cls-3"><g class="cls-3"><path class="cls-4" d="M509.07,275.27h-1.34v-.88H510v8.53h-1Z" transform="translate(-24 -108.31)"/><path class="cls-4" d="M516.5,280a3.12,3.12,0,0,1-1.71.51,3,3,0,0,1-3.28-3.09,3.12,3.12,0,0,1,3.43-3.19c1.79,0,3.46,1,3.46,3.22,0,1.83-1.28,3.47-3.4,5.46h-1.31A12.34,12.34,0,0,0,516.5,280Zm1-2.58a2.51,2.51,0,1,0-2.49,2.3A2.24,2.24,0,0,0,517.46,277.43Z" transform="translate(-24 -108.31)"/></g></g><g id="_14" data-name=" 14" class="cls-3"><g class="cls-3"><path class="cls-4" d="M113,275.27h-1.34v-.88h2.3v8.53h-1Z" transform="translate(-24 -108.31)"/><path class="cls-4" d="M120.22,280.9h-5v-.77l5-5.74h1v5.68h1.26v.83h-1.26v2h-1Zm0-.83v-4.45l-3.92,4.45Z" transform="translate(-24 -108.31)"/></g></g><g id="_13" data-name=" 13" class="cls-3"><g class="cls-3"><path class="cls-4" d="M32.78,275.27H31.44v-.88h2.3v8.53h-1Z" transform="translate(-24 -108.31)"/><path class="cls-4" d="M35.09,280.8l.91-.17a2.42,2.42,0,0,0,2.52,1.57c1.54,0,2.41-.66,2.41-1.7S40.29,279,38.54,279h-.63v-.8h.47c1.54,0,2.3-.51,2.3-1.46s-.74-1.57-2.2-1.57a2.25,2.25,0,0,0-2.23,1.36l-.9-.17a3.08,3.08,0,0,1,3.15-2.05c2,0,3.15.9,3.15,2.35a1.88,1.88,0,0,1-1.77,1.93,1.91,1.91,0,0,1,2,2c0,1.48-1.28,2.48-3.34,2.48A3.26,3.26,0,0,1,35.09,280.8Z" transform="translate(-24 -108.31)"/></g></g><g id="_22" data-name=" 22" class="cls-3"><g class="cls-3"><path class="cls-4" d="M189.69,362.25c4.89-3.1,5.54-3.82,5.54-5.17,0-1.15-.93-1.75-2.24-1.75a2.19,2.19,0,0,0-2.4,1.65l-.89-.12a3,3,0,0,1,3.29-2.4c1.9,0,3.22.89,3.22,2.56s-1,2.61-5.12,5.18h5.06v.89h-6.46Z" transform="translate(-24 -108.31)"/><path class="cls-4" d="M197.24,362.25c4.9-3.1,5.54-3.82,5.54-5.17,0-1.15-.93-1.75-2.24-1.75a2.19,2.19,0,0,0-2.39,1.65l-.89-.12a3,3,0,0,1,3.28-2.4c1.9,0,3.22.89,3.22,2.56s-1,2.61-5.11,5.18h5v.89h-6.46Z" transform="translate(-24 -108.31)"/></g></g><g id="_23" data-name=" 23" class="cls-3"><g class="cls-3"><path class="cls-4" d="M269.85,362.25c4.9-3.1,5.54-3.82,5.54-5.17,0-1.15-.93-1.75-2.23-1.75a2.19,2.19,0,0,0-2.4,1.65l-.89-.12a3,3,0,0,1,3.29-2.4c1.89,0,3.21.89,3.21,2.56s-1,2.61-5.11,5.18h5.05v.89h-6.46Z" transform="translate(-24 -108.31)"/><path class="cls-4" d="M277.34,361l.91-.17a2.42,2.42,0,0,0,2.52,1.57c1.53,0,2.41-.66,2.41-1.7s-.64-1.53-2.4-1.53h-.62v-.8h.47c1.53,0,2.3-.51,2.3-1.46s-.74-1.57-2.21-1.57a2.24,2.24,0,0,0-2.22,1.35l-.9-.16a3.06,3.06,0,0,1,3.15-2.05c2,0,3.14.89,3.14,2.34a1.88,1.88,0,0,1-1.76,1.94,1.9,1.9,0,0,1,2,2c0,1.49-1.28,2.49-3.35,2.49A3.26,3.26,0,0,1,277.34,361Z" transform="translate(-24 -108.31)"/></g></g><g id="_24" data-name=" 24" class="cls-3"><g class="cls-3"><path class="cls-4" d="M350,362.25c4.89-3.1,5.54-3.82,5.54-5.17,0-1.15-.93-1.75-2.24-1.75a2.19,2.19,0,0,0-2.39,1.65l-.9-.12a3,3,0,0,1,3.29-2.4c1.9,0,3.22.89,3.22,2.56s-1,2.61-5.12,5.18h5.06v.89H350Z" transform="translate(-24 -108.31)"/><path class="cls-4" d="M362,361.07h-5v-.78l5-5.74h1v5.68h1.27v.84H363v2H362Zm0-.84v-4.44l-3.93,4.44Z" transform="translate(-24 -108.31)"/></g></g><g id="_25" data-name=" 25" class="cls-3"><g class="cls-3"><path class="cls-4" d="M427.83,362.25c4.89-3.1,5.54-3.82,5.54-5.17,0-1.15-.93-1.75-2.24-1.75a2.19,2.19,0,0,0-2.39,1.65l-.9-.12a3,3,0,0,1,3.29-2.4c1.9,0,3.22.89,3.22,2.56s-1,2.61-5.12,5.18h5.06v.89h-6.46Z" transform="translate(-24 -108.31)"/><path class="cls-4" d="M435.51,361l.86-.12a2.24,2.24,0,0,0,2.39,1.51,2.27,2.27,0,0,0,2.51-2.34,2.18,2.18,0,0,0-2.53-2.19,2.58,2.58,0,0,0-2.23,1.21l-.84-.2.77-4.29h5.22v.88h-4.48l-.51,2.57a3.2,3.2,0,0,1,2.21-.9,2.93,2.93,0,0,1,3.31,3,3.11,3.11,0,0,1-3.4,3.16A3.06,3.06,0,0,1,435.51,361Z" transform="translate(-24 -108.31)"/></g></g><g id="_26" data-name=" 26" class="cls-3"><g class="cls-3"><path class="cls-4" d="M508,362.25c4.89-3.1,5.54-3.82,5.54-5.17,0-1.15-.93-1.75-2.24-1.75a2.18,2.18,0,0,0-2.39,1.65l-.9-.12a3,3,0,0,1,3.29-2.4c1.9,0,3.22.89,3.22,2.56s-1,2.61-5.12,5.18h5.06v.89H508Z" transform="translate(-24 -108.31)"/><path class="cls-4" d="M515.61,360c0-1.83,1.28-3.46,3.41-5.46h1.3a12.57,12.57,0,0,0-2.81,2.92,3,3,0,0,1,1.71-.51A3,3,0,0,1,522.5,360a3.45,3.45,0,0,1-6.89,0Zm5.94,0a2.51,2.51,0,1,0-2.48,2.32A2.23,2.23,0,0,0,521.55,360.05Z" transform="translate(-24 -108.31)"/></g></g><g id="_21" data-name=" 21" class="cls-3"><g class="cls-3"><path class="cls-4" d="M111.88,362.25c4.89-3.1,5.54-3.82,5.54-5.17,0-1.15-.93-1.75-2.24-1.75a2.18,2.18,0,0,0-2.39,1.65l-.9-.12a3,3,0,0,1,3.29-2.4c1.9,0,3.22.89,3.22,2.56s-1,2.61-5.12,5.18h5.06v.89h-6.46Z" transform="translate(-24 -108.31)"/><path class="cls-4" d="M120.51,355.44h-1.35v-.89h2.3v8.54h-.95Z" transform="translate(-24 -108.31)"/></g></g><g id="_20" data-name=" 20" class="cls-3"><g class="cls-3"><path class="cls-4" d="M31.71,362.25c4.89-3.1,5.54-3.82,5.54-5.17,0-1.15-.93-1.75-2.24-1.75A2.19,2.19,0,0,0,32.62,357l-.9-.12a3,3,0,0,1,3.29-2.4c1.9,0,3.22.89,3.22,2.56s-1,2.61-5.12,5.18h5.06v.89H31.71Z" transform="translate(-24 -108.31)"/><path class="cls-4" d="M39.42,358.83c0-3,1.75-4.37,3.68-4.37s3.64,1.33,3.64,4.37-1.72,4.39-3.67,4.39S39.42,361.93,39.42,358.83Zm6.38,0c0-2.18-1-3.49-2.71-3.49s-2.73,1.31-2.73,3.49,1,3.5,2.71,3.5S45.8,361.06,45.8,358.83Z" transform="translate(-24 -108.31)"/></g></g><g id="_29" data-name=" 29" class="cls-3"><g class="cls-3"><path class="cls-4" d="M189.69,440.06c4.89-3.1,5.54-3.82,5.54-5.17,0-1.15-.93-1.75-2.24-1.75a2.19,2.19,0,0,0-2.4,1.65l-.89-.12a3,3,0,0,1,3.29-2.4c1.9,0,3.22.89,3.22,2.56s-1,2.61-5.12,5.18h5.06v.89h-6.46Z" transform="translate(-24 -108.31)"/><path class="cls-4" d="M202.29,438a3.09,3.09,0,0,1-1.71.5,3,3,0,0,1-3.28-3.09,3.12,3.12,0,0,1,3.43-3.18c1.79,0,3.46,1,3.46,3.22,0,1.83-1.28,3.47-3.4,5.46h-1.31A12.34,12.34,0,0,0,202.29,438Zm1-2.59a2.51,2.51,0,1,0-2.5,2.3A2.25,2.25,0,0,0,203.26,435.4Z" transform="translate(-24 -108.31)"/></g></g><g id="_30" data-name=" 30" class="cls-3"><g class="cls-3"><path class="cls-4" d="M269.78,438.78l.91-.17a2.43,2.43,0,0,0,2.52,1.57c1.54,0,2.41-.66,2.41-1.7S275,437,273.23,437h-.63v-.8h.47c1.53,0,2.3-.51,2.3-1.46s-.74-1.57-2.2-1.57a2.24,2.24,0,0,0-2.23,1.35l-.9-.16a3.06,3.06,0,0,1,3.15-2.05c2,0,3.15.89,3.15,2.34a2,2,0,0,0,.23,4c0,1.49-1.28,2.49-3.34,2.49A3.26,3.26,0,0,1,269.78,438.78Z" transform="translate(-24 -108.31)"/><path class="cls-4" d="M277.8,436.64c0-3,1.75-4.37,3.68-4.37s3.64,1.33,3.64,4.37S283.4,441,281.45,441,277.8,439.74,277.8,436.64Zm6.38,0c0-2.18-1.05-3.49-2.71-3.49s-2.73,1.31-2.73,3.49,1,3.5,2.71,3.5S284.18,438.87,284.18,436.64Z" transform="translate(-24 -108.31)"/></g></g><g id="_28" data-name=" 28" class="cls-3"><g class="cls-3"><path class="cls-4" d="M111.88,440.06c4.89-3.1,5.54-3.82,5.54-5.17,0-1.15-.93-1.75-2.24-1.75a2.18,2.18,0,0,0-2.39,1.65l-.9-.12a3,3,0,0,1,3.29-2.4c1.9,0,3.22.89,3.22,2.56s-1,2.61-5.12,5.18h5.06v.89h-6.46Z" transform="translate(-24 -108.31)"/><path class="cls-4" d="M119.49,438.66c0-1.08.76-1.78,2-2a2.08,2.08,0,0,1-1.87-2c0-1.46,1.4-2.31,3.32-2.31s3.31.85,3.31,2.31a2.1,2.1,0,0,1-1.9,2.05c1.28.25,2,.95,2,2,0,1.51-1.46,2.38-3.46,2.38S119.49,440.15,119.49,438.66Zm6-.06c0-1-1-1.6-2.51-1.6s-2.53.62-2.53,1.6,1,1.63,2.52,1.63S125.47,439.59,125.47,438.6Zm-.12-4c0-1-.94-1.56-2.37-1.56s-2.39.59-2.39,1.56.94,1.59,2.37,1.59S125.35,435.62,125.35,434.65Z" transform="translate(-24 -108.31)"/></g></g><g id="_27" data-name=" 27" class="cls-3"><g class="cls-3"><path class="cls-4" d="M31.71,440.06c4.89-3.1,5.54-3.82,5.54-5.17,0-1.15-.93-1.75-2.24-1.75a2.19,2.19,0,0,0-2.39,1.65l-.9-.12a3,3,0,0,1,3.29-2.4c1.9,0,3.22.89,3.22,2.56s-1,2.61-5.12,5.18h5.06v.89H31.71Z" transform="translate(-24 -108.31)"/><path class="cls-4" d="M44.14,433.25H39v-.89h6.21v.85L41,440.9H39.93Z" transform="translate(-24 -108.31)"/></g></g><g id="Group_115" data-name="Group 115"><g id="Path_3" data-name="Path 3"><path class="cls-5" d="M235.1,152.43H207.25a13.94,13.94,0,0,1,13.93-13.94h0c.4,0,.77,0,1.14,0l.94.1A14,14,0,0,1,235.1,152.43Z" transform="translate(-24 -108.31)"/></g><g id="Rectangle_26" data-name="Rectangle 26"><rect class="cls-6" x="183.25" y="44.12" width="27.85" height="4.24"/></g><g id="Path_4" data-name="Path 4"><path class="cls-5" d="M243.44,158.8a2.17,2.17,0,0,1-2.13,2.17H201a2.17,2.17,0,0,1-2.13-2.2,2.09,2.09,0,0,1,.63-1.5,2,2,0,0,1,1.5-.64H241.3A2.16,2.16,0,0,1,243.44,158.8Z" transform="translate(-24 -108.31)"/></g><g id="Path_5" data-name="Path 5"><path class="cls-7" d="M235.1,152.43H211.42a11.43,11.43,0,0,1,.24-2.47,13.23,13.23,0,0,1,.94-3c2.2-5.13,8.3-9.9,14.08-7.37a14.31,14.31,0,0,1,7.84,8.77A20,20,0,0,1,235.1,152.43Z" transform="translate(-24 -108.31)"/></g><g id="Rectangle_27" data-name="Rectangle 27"><rect class="cls-8" x="187.42" y="44.12" width="23.68" height="4.24"/></g><g id="Path_6" data-name="Path 6"><path class="cls-7" d="M243.43,158.8a2.5,2.5,0,0,1-.47,1.54,1.42,1.42,0,0,1-1.13.63H211.32c-.9,0-1.6-1-1.6-2.17a2.48,2.48,0,0,1,.47-1.53,1.44,1.44,0,0,1,1.13-.64h30.52C242.7,156.63,243.43,157.6,243.43,158.8Z" transform="translate(-24 -108.31)"/></g></g><g id="Group_116" data-name="Group 116"><g id="Path_3-2" data-name="Path 3-2"><path class="cls-5" d="M549.46,152.43H521.61a13.93,13.93,0,0,1,13.93-13.94h0c.4,0,.77,0,1.13,0l1,.1A14,14,0,0,1,549.46,152.43Z" transform="translate(-24 -108.31)"/></g><g id="Rectangle_26-2" data-name="Rectangle 26-2"><rect class="cls-6" x="497.61" y="44.12" width="27.85" height="4.24"/></g><g id="Path_4-2" data-name="Path 4-2"><path class="cls-5" d="M557.8,158.8a2.17,2.17,0,0,1-2.13,2.17h-40.3a2.18,2.18,0,0,1-2.14-2.2,2.15,2.15,0,0,1,.64-1.5,2,2,0,0,1,1.5-.64h40.29A2.16,2.16,0,0,1,557.8,158.8Z" transform="translate(-24 -108.31)"/></g><g id="Path_5-2" data-name="Path 5-2"><path class="cls-7" d="M549.46,152.43H525.78A11.42,11.42,0,0,1,526,150a13.78,13.78,0,0,1,1-3c2.2-5.13,8.3-9.9,14.07-7.37a15,15,0,0,1,6.11,5.14,14.77,14.77,0,0,1,1.73,3.63A19.31,19.31,0,0,1,549.46,152.43Z" transform="translate(-24 -108.31)"/></g><g id="Rectangle_27-2" data-name="Rectangle 27-2"><rect class="cls-8" x="501.78" y="44.12" width="23.68" height="4.24"/></g><g id="Path_6-2" data-name="Path 6-2"><path class="cls-7" d="M557.79,158.8a2.57,2.57,0,0,1-.47,1.54,1.43,1.43,0,0,1-1.13.63H525.68c-.9,0-1.61-1-1.61-2.17a2.55,2.55,0,0,1,.48-1.53,1.43,1.43,0,0,1,1.13-.64H556.2C557.06,156.63,557.79,157.6,557.79,158.8Z" transform="translate(-24 -108.31)"/></g></g><g id="Group_117" data-name="Group 117"><g id="Path_3-3" data-name="Path 3-3"><path class="cls-5" d="M549.46,231.57H521.61a13.93,13.93,0,0,1,13.93-13.94h0c.4,0,.77,0,1.13,0l1,.1A14,14,0,0,1,549.46,231.57Z" transform="translate(-24 -108.31)"/></g><g id="Rectangle_26-3" data-name="Rectangle 26-3"><rect class="cls-6" x="497.61" y="123.26" width="27.85" height="4.24"/></g><g id="Path_4-3" data-name="Path 4-3"><path class="cls-5" d="M557.8,237.94a2.17,2.17,0,0,1-2.13,2.17h-40.3a2.18,2.18,0,0,1-2.14-2.2,2.15,2.15,0,0,1,.64-1.5,2,2,0,0,1,1.5-.64h40.29A2.16,2.16,0,0,1,557.8,237.94Z" transform="translate(-24 -108.31)"/></g><g id="Path_5-3" data-name="Path 5-3"><path class="cls-7" d="M549.46,231.57H525.78a11.36,11.36,0,0,1,.23-2.47,13.78,13.78,0,0,1,1-3c2.2-5.13,8.3-9.9,14.07-7.37a15,15,0,0,1,6.11,5.14,14.77,14.77,0,0,1,1.73,3.63A19.31,19.31,0,0,1,549.46,231.57Z" transform="translate(-24 -108.31)"/></g><g id="Rectangle_27-3" data-name="Rectangle 27-3"><rect class="cls-8" x="501.78" y="123.26" width="23.68" height="4.24"/></g><g id="Path_6-3" data-name="Path 6-3"><path class="cls-7" d="M557.79,237.94a2.57,2.57,0,0,1-.47,1.54,1.43,1.43,0,0,1-1.13.63H525.68c-.9,0-1.61-1-1.61-2.17a2.55,2.55,0,0,1,.48-1.53,1.43,1.43,0,0,1,1.13-.64H556.2C557.06,235.77,557.79,236.74,557.79,237.94Z" transform="translate(-24 -108.31)"/></g></g><g id="Group_118" data-name="Group 118"><g id="Path_3-4" data-name="Path 3-4"><path class="cls-5" d="M549.46,310.71H521.61a13.93,13.93,0,0,1,13.93-13.94h0c.4,0,.77,0,1.13,0l1,.1A14,14,0,0,1,549.46,310.71Z" transform="translate(-24 -108.31)"/></g><g id="Rectangle_26-4" data-name="Rectangle 26-4"><rect class="cls-6" x="497.61" y="202.4" width="27.85" height="4.24"/></g><g id="Path_4-4" data-name="Path 4-4"><path class="cls-5" d="M557.8,317.08a2.17,2.17,0,0,1-2.13,2.17h-40.3a2.17,2.17,0,0,1-1.5-3.71,2,2,0,0,1,1.5-.63h40.29A2.16,2.16,0,0,1,557.8,317.08Z" transform="translate(-24 -108.31)"/></g><g id="Path_5-4" data-name="Path 5-4"><path class="cls-7" d="M549.46,310.71H525.78a11.36,11.36,0,0,1,.23-2.47,13.78,13.78,0,0,1,1-3c2.2-5.13,8.3-9.9,14.07-7.37a15,15,0,0,1,6.11,5.14,14.77,14.77,0,0,1,1.73,3.63A19.31,19.31,0,0,1,549.46,310.71Z" transform="translate(-24 -108.31)"/></g><g id="Rectangle_27-4" data-name="Rectangle 27-4"><rect class="cls-8" x="501.78" y="202.4" width="23.68" height="4.24"/></g><g id="Path_6-4" data-name="Path 6-4"><path class="cls-7" d="M557.79,317.08a2.52,2.52,0,0,1-.47,1.53,1.42,1.42,0,0,1-1.13.64H525.68c-.9,0-1.61-1-1.61-2.17a2.53,2.53,0,0,1,.48-1.53,1.43,1.43,0,0,1,1.13-.64H556.2C557.06,314.91,557.79,315.88,557.79,317.08Z" transform="translate(-24 -108.31)"/></g></g><g id="Group_119" data-name="Group 119"><g id="Path_3-5" data-name="Path 3-5"><path class="cls-5" d="M549.46,389.85H521.61a13.92,13.92,0,0,1,13.93-13.94h0c.4,0,.77,0,1.13,0l1,.1A14,14,0,0,1,549.46,389.85Z" transform="translate(-24 -108.31)"/></g><g id="Rectangle_26-5" data-name="Rectangle 26-5"><rect class="cls-6" x="497.61" y="281.54" width="27.85" height="4.24"/></g><g id="Path_4-5" data-name="Path 4-5"><path class="cls-5" d="M557.8,396.22a2.17,2.17,0,0,1-2.13,2.17h-40.3a2.17,2.17,0,0,1-1.5-3.71,2,2,0,0,1,1.5-.63h40.29A2.16,2.16,0,0,1,557.8,396.22Z" transform="translate(-24 -108.31)"/></g><g id="Path_5-5" data-name="Path 5-5"><path class="cls-7" d="M549.46,389.85H525.78a11.36,11.36,0,0,1,.23-2.47,13.78,13.78,0,0,1,1-3c2.2-5.14,8.3-9.9,14.07-7.37a15.06,15.06,0,0,1,6.11,5.13,14.83,14.83,0,0,1,1.73,3.64A19.31,19.31,0,0,1,549.46,389.85Z" transform="translate(-24 -108.31)"/></g><g id="Rectangle_27-5" data-name="Rectangle 27-5"><rect class="cls-8" x="501.78" y="281.54" width="23.68" height="4.24"/></g><g id="Path_6-5" data-name="Path 6-5"><path class="cls-7" d="M557.79,396.22a2.52,2.52,0,0,1-.47,1.53,1.44,1.44,0,0,1-1.13.64H525.68c-.9,0-1.61-1-1.61-2.17a2.53,2.53,0,0,1,.48-1.53,1.43,1.43,0,0,1,1.13-.64H556.2C557.06,394.05,557.79,395,557.79,396.22Z" transform="translate(-24 -108.31)"/></g></g><g id="Group_121" data-name="Group 121"><g id="Path_2" data-name="Path 2"><path class="cls-9" d="M157.23,232.72a6.74,6.74,0,0,1-5.94,6.39,38.71,38.71,0,0,1-7.73.94h-1.07c-.87,0-1.72,0-2.56,0a34.77,34.77,0,0,1-5.19-.57,6.72,6.72,0,0,1-6.21-6.11V233c-.09-4.44,2.61-9.7,4.67-13.3s4.63-7.42,9.23-7.26a8.28,8.28,0,0,1,1.22,0c.1,0,.19,0,.28,0,3.72.47,6.11,3.73,8,6.82C154.25,222.89,157.26,228.21,157.23,232.72Z" transform="translate(-24 -108.31)"/></g><g id="Path_7" data-name="Path 7"><path class="cls-10" d="M157.23,232.72a6.73,6.73,0,0,1-5.95,6.38,37.82,37.82,0,0,1-7.72,1h-1.1a34.77,34.77,0,0,1-5.19-.57,6.74,6.74,0,0,1-6.19-6.13V233c-.1-4.44,2.6-9.7,4.65-13.3s5.35-8.54,10.14-6.7a10.45,10.45,0,0,1,4.45,3.85C153.51,221.33,157.3,227,157.23,232.72Z" transform="translate(-24 -108.31)"/></g><g id="Rectangle_2" data-name="Rectangle 2"><path class="cls-6" d="M142.68,223.74h0a3.82,3.82,0,0,1,3.91,3.73v0h0a3.82,3.82,0,0,1-3.73,3.91h0a3.82,3.82,0,0,1-3.91-3.73v0h0A3.84,3.84,0,0,1,142.68,223.74Z" transform="translate(-24 -108.31)"/></g><g id="Rectangle_2-2" data-name="Rectangle 2"><path class="cls-7" d="M140.74,224.74h0a1,1,0,0,1,1,.91h0a1,1,0,0,1-.91,1h0a1,1,0,0,1-1-.91h0a.93.93,0,0,1,.87-1Z" transform="translate(-24 -108.31)"/></g></g><g id="Group_122" data-name="Group 122"><g id="Path_2-2" data-name="Path 2-2"><path class="cls-9" d="M157.23,314.06a6.73,6.73,0,0,1-5.94,6.38,38,38,0,0,1-7.73.95h-1.07c-.87,0-1.72,0-2.56,0a33.49,33.49,0,0,1-5.19-.56,6.72,6.72,0,0,1-6.21-6.11v-.34c-.09-4.45,2.61-9.7,4.67-13.3s4.63-7.42,9.23-7.26a8.28,8.28,0,0,1,1.22,0c.1,0,.19,0,.28,0,3.72.47,6.11,3.72,8,6.82C154.25,304.23,157.26,309.55,157.23,314.06Z" transform="translate(-24 -108.31)"/></g><g id="Path_7-2" data-name="Path 7-2"><path class="cls-10" d="M157.23,314.05a6.74,6.74,0,0,1-5.95,6.39,37.81,37.81,0,0,1-7.72.94h-1.1a33.49,33.49,0,0,1-5.19-.56,6.75,6.75,0,0,1-6.19-6.13v-.35c-.1-4.44,2.6-9.71,4.65-13.3s5.35-8.55,10.14-6.7a10.39,10.39,0,0,1,4.45,3.85C153.51,302.66,157.3,308.36,157.23,314.05Z" transform="translate(-24 -108.31)"/></g><g id="Rectangle_2_4_2" data-name="Rectangle 2 4 2"><path class="cls-6" d="M142.68,305.08h0a3.82,3.82,0,0,1,3.91,3.73v0h0a3.83,3.83,0,0,1-3.73,3.92h0a3.84,3.84,0,0,1-3.91-3.74v0h0A3.84,3.84,0,0,1,142.68,305.08Z" transform="translate(-24 -108.31)"/></g><g id="Rectangle_2_3_2" data-name="Rectangle 2 3 2"><path class="cls-7" d="M140.74,306.08h0a1,1,0,0,1,1,.9h0a1,1,0,0,1-.91,1h0a1,1,0,0,1-1-.91h0a.92.92,0,0,1,.87-1Z" transform="translate(-24 -108.31)"/></g></g><g id="Group_123" data-name="Group 123"><g id="Path_2-3" data-name="Path 2-3"><path class="cls-9" d="M157.23,393.2a6.73,6.73,0,0,1-5.94,6.38,37.3,37.3,0,0,1-7.73.94h-1.07c-.87,0-1.72,0-2.56,0a33.49,33.49,0,0,1-5.19-.56,6.72,6.72,0,0,1-6.21-6.11v-.34c-.09-4.45,2.61-9.7,4.67-13.3s4.63-7.42,9.23-7.26a6.22,6.22,0,0,1,1.22,0c.1,0,.19,0,.28,0,3.72.47,6.11,3.72,8,6.82C154.25,383.37,157.26,388.69,157.23,393.2Z" transform="translate(-24 -108.31)"/></g><g id="Path_7-3" data-name="Path 7-3"><path class="cls-10" d="M157.23,393.19a6.74,6.74,0,0,1-5.95,6.39,37.81,37.81,0,0,1-7.72.94h-1.1a33.49,33.49,0,0,1-5.19-.56,6.75,6.75,0,0,1-6.19-6.13v-.35c-.1-4.44,2.6-9.71,4.65-13.3s5.35-8.55,10.14-6.7a10.39,10.39,0,0,1,4.45,3.85C153.51,381.8,157.3,387.5,157.23,393.19Z" transform="translate(-24 -108.31)"/></g><g id="Rectangle_2_4_3" data-name="Rectangle 2 4 3"><path class="cls-6" d="M142.68,384.22h0a3.82,3.82,0,0,1,3.91,3.73v0h0a3.82,3.82,0,0,1-3.73,3.91h0a3.84,3.84,0,0,1-3.91-3.74v0h0A3.84,3.84,0,0,1,142.68,384.22Z" transform="translate(-24 -108.31)"/></g><g id="Rectangle_2_3_3" data-name="Rectangle 2 3 3"><path class="cls-7" d="M140.74,385.21h0a1,1,0,0,1,1,.91h0a1,1,0,0,1-.91,1h0a1,1,0,0,1-1-.91h0a.92.92,0,0,1,.87-1Z" transform="translate(-24 -108.31)"/></g></g><g id="S" class="cls-3"><g class="cls-3"><path class="cls-6" d="M549.36,173.48l3.3-.23a1,1,0,0,0,1.17.92c.51,0,.88-.23.85-.57-.1-1.16-5.12-.59-5.12-4.23,0-2,1.73-3.25,4.06-3.25,2.51,0,4.2,1,4.37,3.08l-3.17.23a1,1,0,0,0-1.07-.77c-.47,0-.79.22-.79.55,0,1.45,5.22.54,5.22,4.19,0,2-1.71,3.27-4.32,3.27S549.62,175.57,549.36,173.48Z" transform="translate(-24 -108.31)"/></g></g><g id="S-2" class="cls-3"><g class="cls-3"><path class="cls-6" d="M551.36,253.28l3.3-.22a1,1,0,0,0,1.17.92c.51,0,.88-.23.85-.57-.1-1.16-5.12-.59-5.12-4.23,0-2,1.73-3.26,4.06-3.26,2.51,0,4.2,1,4.37,3.09l-3.17.23a1,1,0,0,0-1.07-.77c-.47,0-.79.21-.79.55,0,1.45,5.22.54,5.22,4.19,0,2-1.71,3.27-4.32,3.27S551.62,255.38,551.36,253.28Z" transform="translate(-24 -108.31)"/></g></g><g id="S-3" class="cls-3"><g class="cls-3"><path class="cls-6" d="M549.36,333.45l3.3-.23a1,1,0,0,0,1.17.92c.51,0,.88-.22.85-.56-.1-1.16-5.12-.6-5.12-4.23,0-2,1.73-3.26,4.06-3.26,2.51,0,4.2,1,4.37,3.09l-3.17.22a1,1,0,0,0-1.07-.76c-.47,0-.79.21-.79.55,0,1.44,5.22.54,5.22,4.19,0,2-1.71,3.27-4.32,3.27S549.62,335.55,549.36,333.45Z" transform="translate(-24 -108.31)"/></g></g><g id="S-4" class="cls-3"><g class="cls-3"><path class="cls-6" d="M549.36,411.26l3.3-.23a1,1,0,0,0,1.17.92c.51,0,.88-.22.85-.56-.1-1.16-5.12-.6-5.12-4.23,0-2,1.73-3.26,4.06-3.26,2.51,0,4.2,1,4.37,3.09l-3.17.22a1,1,0,0,0-1.07-.76c-.47,0-.79.21-.79.55,0,1.44,5.22.54,5.22,4.19,0,2-1.71,3.27-4.32,3.27S549.62,413.35,549.36,411.26Z" transform="translate(-24 -108.31)"/></g></g><g id="S-5" class="cls-3"><g class="cls-3"><path class="cls-6" d="M156.52,256.28l3.3-.22A1,1,0,0,0,161,257c.51,0,.87-.23.85-.57-.1-1.16-5.13-.59-5.13-4.23,0-2,1.73-3.26,4.06-3.26,2.51,0,4.21,1,4.38,3.09l-3.17.23a1,1,0,0,0-1.08-.77c-.46,0-.79.21-.79.55,0,1.45,5.22.54,5.22,4.19,0,2-1.71,3.27-4.31,3.27S156.78,258.38,156.52,256.28Z" transform="translate(-24 -108.31)"/></g></g><g id="S-6" class="cls-3"><g class="cls-3"><path class="cls-6" d="M156.52,334.09l3.3-.22a1,1,0,0,0,1.18.92c.51,0,.87-.23.85-.57-.1-1.16-5.13-.59-5.13-4.23,0-2,1.73-3.26,4.06-3.26,2.51,0,4.21,1,4.38,3.09l-3.17.23a1,1,0,0,0-1.08-.77c-.46,0-.79.21-.79.55,0,1.45,5.22.54,5.22,4.19,0,2-1.71,3.27-4.31,3.27S156.78,336.19,156.52,334.09Z" transform="translate(-24 -108.31)"/></g></g><g id="S-7" class="cls-3"><g class="cls-3"><path class="cls-6" d="M156.52,411.9l3.3-.22a1,1,0,0,0,1.18.92c.51,0,.87-.23.85-.57-.1-1.16-5.13-.59-5.13-4.23,0-2,1.73-3.26,4.06-3.26,2.51,0,4.21,1,4.38,3.09l-3.17.22a1,1,0,0,0-1.08-.76c-.46,0-.79.21-.79.55,0,1.45,5.22.54,5.22,4.19,0,2-1.71,3.27-4.31,3.27S156.78,414,156.52,411.9Z" transform="translate(-24 -108.31)"/></g></g><g id="D" class="cls-3"><g class="cls-3"><path class="cls-11" d="M236.69,166.29h3.37c4.11,0,5.61,1.93,5.61,5.13s-1.5,5.11-5.61,5.11h-3.37Zm3.52,7.24c1.77,0,2-.81,2-2.14s-.23-2.13-2-2.13h-.07v4.27Z" transform="translate(-24 -108.31)"/></g></g><g id="D-2" class="cls-3"><g class="cls-3"><path class="cls-11" d="M145.37,249.09h3.37c4.12,0,5.62,1.94,5.62,5.14s-1.5,5.11-5.62,5.11h-3.37Zm3.53,7.25c1.77,0,2-.81,2-2.14s-.22-2.13-2-2.13h-.07v4.27Z" transform="translate(-24 -108.31)"/></g></g><g id="D-3" class="cls-3"><g class="cls-3"><path class="cls-11" d="M145.37,326.9h3.37c4.12,0,5.62,1.94,5.62,5.14s-1.5,5.11-5.62,5.11h-3.37Zm3.53,7.25c1.77,0,2-.81,2-2.14s-.22-2.13-2-2.13h-.07v4.27Z" transform="translate(-24 -108.31)"/></g></g><g id="D-4" class="cls-3"><g class="cls-3"><path class="cls-11" d="M145.37,404.71h3.37c4.12,0,5.62,1.94,5.62,5.14s-1.5,5.11-5.62,5.11h-3.37ZM148.9,412c1.77,0,2-.81,2-2.14s-.22-2.13-2-2.13h-.07V412Z" transform="translate(-24 -108.31)"/></g></g></svg>