<svg id="Layer_1" data-name="Layer 1" xmlns="http://www.w3.org/2000/svg" viewBox="0 0 401.51 297.32"><defs><style>.cls-1{opacity:0;}.cls-2{fill:#f3f2f9;}.cls-3{fill:#e8e6f3;}.cls-4{fill:#f27075;}.cls-5{fill:#f9b8bd;}.cls-6{fill:#fcdcdd;}.cls-7{fill:#bf587a;}.cls-8{fill:#5a469c;}.cls-9{fill:#3d2d7e;}.cls-10{fill:#f8b4b8;}.cls-11{fill:#f59398;}</style></defs><title>CAT</title><g class="cls-1"><path class="cls-2" d="M428.19,336.22c-.33,28.13-20.24,49.49-53.24,57.12A340,340,0,0,1,306,401.57l-4.61.08c-.42,0-.84,0-1.29,0-1.09.05-2.18.05-3.3.08q-11.58.25-22.82-.19a320.47,320.47,0,0,1-46.39-5c-33.3-6.21-54.14-26.68-55.67-54.78-.06-1-.12-2-.12-3C171,299,195.06,252,213.49,219.78s41.36-66.22,82.58-65a72.4,72.4,0,0,1,10.93,0c.87.09,1.7.17,2.54.28,33.2,4.2,54.36,33.34,71.84,61C401.68,248.33,428.64,295.84,428.19,336.22Z" transform="translate(-99.24 -141.43)"/><path class="cls-3" d="M428.19,336.22c-.33,28.13-20.24,49.49-53.24,57.12A340,340,0,0,1,306,401.57l-4.61.08c-.42,0-.84,0-1.29,0-1.23,0-2.46-.06-3.66-.11a320,320,0,0,1-46.39-5c-33.31-6.21-54.17-26.68-55.68-54.78-.06-1-.11-2-.14-3-.87-39.71,23.27-86.71,41.67-119,18-31.51,48.05-76.4,90.69-59.76,16.57,6.46,29.45,19.93,39.8,34.38C394.92,234.21,428.76,285.23,428.19,336.22Z" transform="translate(-99.24 -141.43)"/><path id="Rectangle_2" data-name="Rectangle 2" class="cls-4" d="M298.25,255.83h0a34.27,34.27,0,0,1,35,33.52h0a34.26,34.26,0,0,1-33.52,35h0a34.28,34.28,0,0,1-35-33.52h0A34.27,34.27,0,0,1,298.25,255.83Z" transform="translate(-99.24 -141.43)"/><path id="Rectangle_2-2" data-name="Rectangle 2" class="cls-5" d="M280.8,264.9h0a8.39,8.39,0,0,1,8.58,8.21h0a8.39,8.39,0,0,1-8.21,8.58h0a8.39,8.39,0,0,1-8.58-8.21h0A8.4,8.4,0,0,1,280.8,264.9Z" transform="translate(-99.24 -141.43)"/></g><g class="cls-1"><path class="cls-6" d="M425.57,300.06H174.43A125.56,125.56,0,0,1,300,174.49c3.46,0,6.89.15,10.29.42,2.85.24,5.71.57,8.51,1A125.6,125.6,0,0,1,425.57,300.06Z" transform="translate(-99.24 -141.43)"/><rect class="cls-4" x="75.17" y="158.63" width="251.13" height="38.22"/><path class="cls-6" d="M500.76,357.68a19.71,19.71,0,0,1-5.6,13.81,19,19,0,0,1-13.53,5.71H118.34a19.32,19.32,0,0,1-19.1-19.52,19.6,19.6,0,0,1,5.6-13.8,18.86,18.86,0,0,1,13.5-5.72H481.63A19.33,19.33,0,0,1,500.76,357.68Z" transform="translate(-99.24 -141.43)"/><path class="cls-5" d="M425.57,300.06H212c-1.57,0,1.89-20.42,2.25-22.31a131,131,0,0,1,8.32-27.09c19.9-46.33,74.86-89.25,126.77-66.47,21.2,9.3,42.32,26.95,55.12,46.22A125.9,125.9,0,0,1,420,263C421,266.05,427.66,300.06,425.57,300.06Z" transform="translate(-99.24 -141.43)"/><rect class="cls-7" x="112.77" y="158.63" width="213.54" height="38.22"/><path class="cls-5" d="M500.76,357.68a23.36,23.36,0,0,1-4.24,13.81c-2.62,3.52-6.27,5.71-10.25,5.71H211.09c-8,0-14.46-8.75-14.46-19.52a23.21,23.21,0,0,1,4.23-13.8c2.62-3.52,6.22-5.72,10.23-5.72H486.27C494.26,338.16,500.76,346.89,500.76,357.68Z" transform="translate(-99.24 -141.43)"/></g><path class="cls-4" d="M381.62,366.37c0,.67,0,1.3-.09,1.94-.73,6.62-5.12,12.81-12.26,18.09-10.13,7.55-25.85,13.29-44.48,16a168.56,168.56,0,0,1-20.12,1.73c-1.54,0-3.09.06-4.67.06a168.73,168.73,0,0,1-26.64-2.07c-32-5.09-55-19.2-55-35.77a18.38,18.38,0,0,1,.88-5.58A26.52,26.52,0,0,1,226.42,350c13.2-12.65,41.2-21.39,73.58-21.39,1.58,0,3.13,0,4.67.06,18.06.49,34.53,3.64,47.58,8.68,15.05,5.83,25.49,14.11,28.49,23.49a16.82,16.82,0,0,1,.79,3.64C381.59,365.07,381.62,365.7,381.62,366.37Z" transform="translate(-99.24 -141.43)"/><path class="cls-7" d="M369.27,386.4c-10.13,7.55-25.85,13.29-44.48,16a168.56,168.56,0,0,1-20.12,1.73c-1.54,0-3.09.06-4.67.06a168.73,168.73,0,0,1-26.64-2.07,8.75,8.75,0,0,1-3.31-6.85,8.64,8.64,0,0,1,2.67-6.28,9.33,9.33,0,0,1,6.49-2.61Z" transform="translate(-99.24 -141.43)"/><path class="cls-7" d="M381.53,364.43c.06.64.09,1.27.09,1.94s0,1.3-.09,1.94c-.73,6.62-5.12,12.81-12.26,18.09-10.13,7.55-25.85,13.29-44.48,16a38.62,38.62,0,0,1-8.37-14.48c-.16-.51-.31-1-.43-1.54a38.92,38.92,0,0,1,36.26-49.1c.43,0,.85,0,1.28,0a38.91,38.91,0,0,1,33.07,18.39c-1.88,1.76-3.85,3.49-5.86,5.13A16.82,16.82,0,0,1,381.53,364.43Z" transform="translate(-99.24 -141.43)"/><path class="cls-8" d="M419.86,281.07c0,28.92-12.66,55.2-33.26,74.59-1.88,1.76-3.85,3.49-5.86,5.13a122.26,122.26,0,0,1-32.13,18.93,127.66,127.66,0,0,1-22.7,6.68c-3.12.63-6.28,1.15-9.49,1.54-2,.25-3.95.46-5.95.61-.43,0-.88.06-1.31.06-3,.21-6.1.34-9.16.34a134.27,134.27,0,0,1-23.67-2.1,124.77,124.77,0,0,1-57.1-26.06c-24-19.73-39.09-48.13-39.09-79.72a98.53,98.53,0,0,1,9.71-42.57V141.43L205,152.93l3.55,2.7,2.25,1.7,35.78,27.16-.07.06c.64-.27,1.28-.58,1.92-.85,3.42-1.49,6.94-2.79,10.56-4,.51-.19,1-.37,1.54-.52a4.51,4.51,0,0,1,.58-.15c1.79-.58,3.64-1.12,5.49-1.58A131.17,131.17,0,0,1,300,173.2c3.13,0,6.19.09,9.22.34l1.19.09a126.73,126.73,0,0,1,17.26,2.46A129.19,129.19,0,0,1,353,184.34l6.31-4.73.67-.52,2.67-2,47.46-35.66V238.5h0A98.24,98.24,0,0,1,419.86,281.07Z" transform="translate(-99.24 -141.43)"/><path class="cls-9" d="M419.86,281.07c0,28.92-12.66,55.2-33.26,74.59-1.88,1.76-3.85,3.49-5.86,5.13a122.26,122.26,0,0,1-32.13,18.93,127.66,127.66,0,0,1-22.7,6.68c-3.12.63-6.28,1.15-9.49,1.54-2,.25-3.95.46-5.95.61-.43,0-.88.06-1.31.06a132.86,132.86,0,0,1-16.5-2.21c-26.4-5.25-49.55-18.36-66.24-36.45-17.24-18.66-27.59-42.66-27.59-68.88a98.53,98.53,0,0,1,9.71-42.57V155.63l2.25,1.7,35.78,27.16-.07.06c.64-.27,1.28-.58,1.92-.85,3.42-1.49,6.94-2.79,10.56-4l6.28,4.76-.06.06a128.55,128.55,0,0,1,14-5.34,4.51,4.51,0,0,1,.58-.15c1.79-.58,3.64-1.12,5.49-1.58a128.25,128.25,0,0,1,23.94-3.94l1.19.09a126.73,126.73,0,0,1,17.26,2.46A129.19,129.19,0,0,1,353,184.34l6.31-4.73a119.35,119.35,0,0,1,12.38,4.73l7-5.25,2.67-2,28.77-21.61v83h0A98.24,98.24,0,0,1,419.86,281.07Z" transform="translate(-99.24 -141.43)"/><path class="cls-9" d="M410.14,141.43v93.16H248.41V183.7c3.43-1.49,7-2.79,10.56-4,.51-.19,1-.37,1.55-.52a4,4,0,0,1,.57-.15c1.79-.58,3.64-1.12,5.49-1.58A131.17,131.17,0,0,1,300,173.2c3.13,0,6.19.09,9.23.34l1.18.09a126.88,126.88,0,0,1,17.27,2.46A129.1,129.1,0,0,1,353,184.34l6.31-4.73.67-.52,2.67-2Z" transform="translate(-99.24 -141.43)"/><path class="cls-10" d="M316.2,434.38c-1.18-16.86-6.84-30.1-13.95-32.42a7,7,0,0,0-2.25-.37c-8.15,0-14.9,14.18-16.2,32.79Z" transform="translate(-99.24 -141.43)"/><path class="cls-11" d="M316.2,434.38c-1.18-16.86-6.84-30.1-13.95-32.42-7.13,2.3-12.79,15.54-14,32.42Z" transform="translate(-99.24 -141.43)"/><circle class="cls-11" cx="200.76" cy="292.94" r="4.38"/></svg>