<svg id="Layer_1" data-name="Layer 1" xmlns="http://www.w3.org/2000/svg" viewBox="0 0 476 476"><defs><style>.cls-1{fill:#e8e6f3;}.cls-2{fill:#bf587a;}.cls-3{fill:#f27075;}.cls-4{fill:#7d76b7;}.cls-5{fill:#3d2d7e;}</style></defs><title>DIAGRAM</title><path class="cls-1" d="M235,128.77,218.25,82.92A237.22,237.22,0,0,1,300,68.5v48.82A188.72,188.72,0,0,0,235,128.77Z" transform="translate(-62 -68.5)"/><path class="cls-2" d="M456.88,200.75A189.13,189.13,0,0,0,300,117.32V68.5A237.91,237.91,0,0,1,497.34,173.41Z" transform="translate(-62 -68.5)"/><path class="cls-3" d="M538,306.5H489.18a188.16,188.16,0,0,0-32.3-105.75l40.46-27.33A236.82,236.82,0,0,1,538,306.5Z" transform="translate(-62 -68.5)"/><path class="cls-4" d="M531.1,363.61l-47.41-11.67a190.09,190.09,0,0,0,5.49-45.44H538A238.88,238.88,0,0,1,531.1,363.61Z" transform="translate(-62 -68.5)"/><path class="cls-5" d="M300,544.5c-131.23,0-238-106.77-238-238C62,207,124.79,117.1,218.25,82.92L235,128.77A189.86,189.86,0,0,0,110.82,306.5c0,104.31,84.87,189.18,189.18,189.18A188.71,188.71,0,0,0,483.69,351.93l47.41,11.69A237.45,237.45,0,0,1,300,544.5Z" transform="translate(-62 -68.5)"/></svg>