<svg id="Layer_1" data-name="Layer 1" xmlns="http://www.w3.org/2000/svg" viewBox="0 0 401.51 247.23"><defs><style>.cls-1{opacity:0;}.cls-2{fill:#f3f2f9;}.cls-3{fill:#e8e6f3;}.cls-4{fill:#f27075;}.cls-5{fill:#f9b8bd;}.cls-6{fill:#fcdcdd;}.cls-7{fill:#bf587a;}</style></defs><title>HAT</title><g class="cls-1"><path class="cls-2" d="M428.19,336.22c-.33,28.13-20.24,49.49-53.24,57.12A340,340,0,0,1,306,401.57l-4.61.08c-.42,0-.84,0-1.29,0-1.09.05-2.18.05-3.3.08q-11.58.25-22.82-.19a320.47,320.47,0,0,1-46.39-5c-33.3-6.21-54.14-26.68-55.67-54.78-.06-1-.12-2-.12-3C171,299,195.06,252,213.49,219.78s41.36-66.22,82.58-65a72.4,72.4,0,0,1,10.93,0c.87.09,1.7.17,2.54.28,33.2,4.2,54.36,33.34,71.84,61C401.68,248.33,428.64,295.84,428.19,336.22Z" transform="translate(-99.24 -154.62)"/><path class="cls-3" d="M428.19,336.22c-.33,28.13-20.24,49.49-53.24,57.12A340,340,0,0,1,306,401.57l-4.61.08c-.42,0-.84,0-1.29,0-1.23,0-2.46-.06-3.66-.11a320,320,0,0,1-46.39-5c-33.31-6.21-54.17-26.68-55.68-54.78-.06-1-.11-2-.14-3-.87-39.71,23.27-86.71,41.67-119,18-31.51,48.05-76.4,90.69-59.76,16.57,6.46,29.45,19.93,39.8,34.38C394.92,234.21,428.76,285.23,428.19,336.22Z" transform="translate(-99.24 -154.62)"/><path id="Rectangle_2" data-name="Rectangle 2" class="cls-4" d="M298.25,255.83h0a34.27,34.27,0,0,1,35,33.52h0a34.26,34.26,0,0,1-33.52,35h0a34.28,34.28,0,0,1-35-33.52h0A34.27,34.27,0,0,1,298.25,255.83Z" transform="translate(-99.24 -154.62)"/><path id="Rectangle_2-2" data-name="Rectangle 2" class="cls-5" d="M280.8,264.9h0a8.39,8.39,0,0,1,8.58,8.21h0a8.39,8.39,0,0,1-8.21,8.58h0a8.39,8.39,0,0,1-8.58-8.21h0A8.4,8.4,0,0,1,280.8,264.9Z" transform="translate(-99.24 -154.62)"/></g><path class="cls-6" d="M425.57,300.06H174.43A125.56,125.56,0,0,1,300,174.49c3.46,0,6.89.15,10.29.42,2.85.24,5.71.57,8.51,1A125.6,125.6,0,0,1,425.57,300.06Z" transform="translate(-99.24 -154.62)"/><rect class="cls-4" x="75.17" y="145.44" width="251.13" height="38.22"/><path class="cls-6" d="M500.76,357.68a19.71,19.71,0,0,1-5.6,13.81,19,19,0,0,1-13.53,5.71H118.34a19.32,19.32,0,0,1-19.1-19.52,19.6,19.6,0,0,1,5.6-13.8,18.86,18.86,0,0,1,13.5-5.72H481.63A19.33,19.33,0,0,1,500.76,357.68Z" transform="translate(-99.24 -154.62)"/><path class="cls-5" d="M425.57,300.06H212c-1.57,0,1.89-20.42,2.25-22.31a131,131,0,0,1,8.32-27.09c19.9-46.33,74.86-89.25,126.77-66.47,21.2,9.3,42.32,26.95,55.12,46.22A125.9,125.9,0,0,1,420,263C421,266.05,427.66,300.06,425.57,300.06Z" transform="translate(-99.24 -154.62)"/><rect class="cls-7" x="112.77" y="145.44" width="213.54" height="38.22"/><path class="cls-5" d="M500.76,357.68a23.36,23.36,0,0,1-4.24,13.81c-2.62,3.52-6.27,5.71-10.25,5.71H211.09c-8,0-14.46-8.75-14.46-19.52a23.21,23.21,0,0,1,4.23-13.8c2.62-3.52,6.22-5.72,10.23-5.72H486.27C494.26,338.16,500.76,346.89,500.76,357.68Z" transform="translate(-99.24 -154.62)"/></svg>