<svg id="Layer_1" data-name="Layer 1" xmlns="http://www.w3.org/2000/svg" viewBox="0 0 418.18 521"><defs><style>.cls-1{fill:#f3f2f9;}</style></defs><title>SEARCH</title><path class="cls-1" d="M282.12,46C176.52,46,90.91,131.61,90.91,237.21s85.61,191.21,191.21,191.21,191.21-85.61,191.21-191.21S387.72,46,282.12,46Zm0,333.65A142.45,142.45,0,1,1,424.56,237.21,142.44,142.44,0,0,1,282.12,379.65Z" transform="translate(-90.91 -46)"/><path class="cls-1" d="M476.36,567a32.69,32.69,0,0,1-27.14-14.38L350.35,406.73A32.75,32.75,0,1,1,404.58,370l98.86,145.89A32.76,32.76,0,0,1,476.36,567Z" transform="translate(-90.91 -46)"/></svg>