<svg id="Layer_1" data-name="Layer 1" xmlns="http://www.w3.org/2000/svg" viewBox="0 0 534 397.47"><defs><style>.cls-1{fill:#f3f2f9;}</style></defs><title>TV</title><path class="cls-1" d="M33.42,232.87l75.16,264.52a10.85,10.85,0,0,0,10.45,7.9H481a10.85,10.85,0,0,0,10.45-7.9l75.16-264.52A10.88,10.88,0,0,0,556.12,219H43.88A10.88,10.88,0,0,0,33.42,232.87Zm439.3,63.24L447.06,436.74a23.79,23.79,0,0,1-23.4,19.52H176.34a23.79,23.79,0,0,1-23.4-19.52L127.28,296.11a23.78,23.78,0,0,1,23.4-28.05H449.32A23.78,23.78,0,0,1,472.72,296.11Z" transform="translate(-33 -107.82)"/><path class="cls-1" d="M300,224.28a9.54,9.54,0,0,1-7.16-3.21L206.5,123.74A9.57,9.57,0,0,1,220.81,111l86.34,97.32A9.56,9.56,0,0,1,300,224.28Z" transform="translate(-33 -107.82)"/><path class="cls-1" d="M300,224.28a9.57,9.57,0,0,1-7.16-15.92L379.18,111a9.57,9.57,0,0,1,14.31,12.7l-86.34,97.33A9.52,9.52,0,0,1,300,224.28Z" transform="translate(-33 -107.82)"/></svg>